<svg width="900" height="671" viewBox="0 0 900 671" fill="none" xmlns="http://www.w3.org/2000/svg">
<path d="M386.06 155.61C386.06 155.61 383.23 194.11 340.58 190.55C340.58 190.55 355.52 228.86 366.24 235.64L420.1 269.73L433 209.42L386.06 155.61Z" fill="#2E2E2E"/>
<path d="M340.4 300.56L227.54 463.99L103.08 464.42V462.14C103.083 456.818 105.106 451.696 108.741 447.809C112.376 443.922 117.351 441.56 122.66 441.2L157 438.91L257.14 258.13C261.869 249.326 268.373 241.6 276.241 235.439C284.109 229.278 293.17 224.816 302.851 222.337C312.532 219.858 322.622 219.414 332.483 221.034C342.344 222.655 351.762 226.303 360.14 231.75L361 232.31L418.64 268.75L377.74 367.31L325.81 321.75" fill="none"/>
<path d="M722.09 395.751C711.7 424.671 692.69 429.361 670.46 427.871C658.83 412.631 645.05 391.871 633.91 376.361C620.963 358.261 607.997 340.187 595.01 322.141C591.7 317.501 588.39 312.891 585.01 308.251V377.781C585.022 381.37 584.785 384.955 584.3 388.511C520.96 442.641 430.49 374.721 418.15 364.911C417.22 364.201 416.76 363.801 416.76 363.801C410.85 320.971 417.23 288.581 418.59 264.091C420.45 231.371 426.51 220.971 431.89 210.911L434.12 205.271C438.3 197.481 438.12 195.541 438.68 195.171L438.51 193.741C438.51 193.741 440.68 191.301 440.68 191.241C452.9 171.071 462.31 154.241 482.54 142.111C475.54 147.271 470.7 159.771 478.12 166.601C486.75 174.551 498.5 165.151 505.58 159.601C514.628 152.77 522.569 144.583 529.12 135.331C531.19 132.331 533.79 129.141 533.39 125.331C548.05 125.121 560.45 130.331 575.57 139.071C594.69 150.141 609.93 166.841 620.33 186.361L722.09 395.751Z" fill="#2E2E2E"/>
<path d="M539.4 85.818V86.098C539.4 91.933 537.082 97.528 532.956 101.654C528.83 105.78 523.235 108.098 517.4 108.098C513.661 108.115 509.982 107.153 506.73 105.308C505.794 104.822 504.904 104.253 504.07 103.608C503.728 103.329 503.459 102.971 503.286 102.566C503.112 102.16 503.039 101.719 503.072 101.279C503.105 100.84 503.244 100.414 503.477 100.04C503.71 99.665 504.03 99.352 504.41 99.128C508.92 96.408 513.16 92.448 514.68 87.528C515.144 86.018 515.3 84.43 515.14 82.858C515.007 80.85 514.349 78.913 513.231 77.24C512.113 75.567 510.574 74.218 508.77 73.328C508.203 73.113 507.612 72.968 507.01 72.898C505.31 72.618 503.01 72.648 502.49 73.898C505.172 67.938 505.815 61.26 504.32 54.898C503.389 50.95 501.569 47.267 499 44.128C499.037 45.26 498.824 46.385 498.376 47.425C497.928 48.465 497.256 49.393 496.407 50.143C495.559 50.893 494.556 51.446 493.469 51.763C492.382 52.08 491.238 52.154 490.12 51.978C481.43 50.978 480.47 42.518 480.47 42.518C480.47 42.518 480.41 42.608 480.41 42.668C475.83 51.828 464.73 51.178 457.15 46.318C454.465 44.649 452.167 42.426 450.41 39.798C448.95 29.898 457.74 21.178 467.08 20.588C467.79 14.438 472.83 8.18797 478.95 8.18797C481.077 8.18197 483.167 8.74698 485.001 9.82298C486.836 10.899 488.348 12.448 489.38 14.308C489.541 14.599 489.685 14.9 489.81 15.208C492.59 11.808 496.99 8.20796 501.35 8.20796C504.405 8.21196 507.383 9.16797 509.87 10.942C512.358 12.716 514.231 15.221 515.23 18.108C515.23 17.668 519.23 16.248 519.62 16.108C521.244 15.636 522.929 15.407 524.62 15.428C527.568 15.505 530.449 16.321 533 17.801C535.551 19.281 537.689 21.377 539.22 23.898C539.374 24.776 539.447 25.666 539.44 26.558C539.442 29.223 538.815 31.851 537.61 34.228C538.982 34.738 540.245 35.505 541.33 36.488C543.662 38.526 545.099 41.399 545.33 44.488C545.33 44.798 545.33 45.108 545.33 45.418C545.335 47.752 544.638 50.034 543.33 51.968C544.768 52.512 546.13 53.242 547.38 54.138C551.105 56.823 553.621 60.869 554.38 65.398C554.548 66.389 554.631 67.393 554.63 68.398C554.629 72.653 553.086 76.763 550.285 79.967C547.484 83.17 543.617 85.249 539.4 85.818Z" fill="#3FBDF1"/>
<path d="M539.4 85.818V86.098C539.4 91.933 537.082 97.528 532.956 101.654C528.83 105.78 523.235 108.098 517.4 108.098C513.661 108.115 509.982 107.153 506.73 105.308C511.24 102.588 515.48 98.628 517 93.718C517.542 91.886 517.657 89.954 517.334 88.071C517.012 86.188 516.261 84.405 515.14 82.858C515.007 80.85 514.349 78.913 513.231 77.24C512.113 75.567 510.574 74.218 508.77 73.328C508.203 73.113 507.612 72.968 507.01 72.898C508.095 66.765 507.151 60.446 504.32 54.898C503.389 50.95 501.569 47.267 499 44.128C499.037 45.26 498.824 46.385 498.376 47.425C497.928 48.465 497.256 49.393 496.407 50.143C495.559 50.893 494.556 51.446 493.469 51.763C492.382 52.08 491.238 52.154 490.12 51.978C481.43 50.978 480.47 42.518 480.47 42.518C480.47 42.518 480.41 42.608 480.41 42.668C475.83 51.828 464.73 51.178 457.15 46.318C454.465 44.649 452.167 42.426 450.41 39.798C448.95 29.898 457.74 21.178 467.08 20.588C467.79 14.438 472.83 8.18797 478.95 8.18797C481.077 8.18197 483.167 8.74698 485.001 9.82298C486.836 10.899 488.348 12.448 489.38 14.308C489.541 14.599 489.685 14.9 489.81 15.208C492.59 11.808 496.99 8.20796 501.35 8.20796C504.405 8.21196 507.383 9.16797 509.87 10.942C512.358 12.716 514.231 15.221 515.23 18.108C515.23 17.668 519.23 16.248 519.62 16.108C521.244 15.636 522.929 15.407 524.62 15.428C527.568 15.505 530.449 16.321 533 17.801C535.551 19.281 537.689 21.377 539.22 23.898C539.374 24.776 539.447 25.666 539.44 26.558C539.442 29.223 538.815 31.851 537.61 34.228C538.982 34.738 540.245 35.505 541.33 36.488C541.035 37.853 540.564 39.174 539.93 40.418C542.08 41.233 543.958 42.637 545.35 44.468C545.35 44.778 545.35 45.088 545.35 45.398C545.355 47.732 544.658 50.014 543.35 51.948C544.788 52.492 546.15 53.222 547.4 54.118C547.063 55.543 546.477 56.897 545.67 58.118C549.329 59.472 552.423 62.024 554.45 65.358C554.618 66.349 554.701 67.353 554.7 68.358C554.707 72.63 553.158 76.759 550.342 79.973C547.526 83.186 543.636 85.264 539.4 85.818Z" fill="#3FBDF1"/>
<path d="M482.6 668.699H340.4V665.949C340.396 660.512 342.501 655.285 346.272 651.369C350.043 647.452 355.187 645.151 360.62 644.949L394.18 643.559H473.42L482.6 668.699Z" fill="#3FBDF1"/>
<path d="M227.54 463.989L103.08 463.679V460.929C103.076 455.49 105.183 450.262 108.956 446.345C112.729 442.429 117.875 440.128 123.31 439.929L156.87 438.559L244.16 439.949L227.54 463.989Z" fill="#3FBDF1"/>
<path d="M433.52 463.28H499.52C520.312 463.223 540.375 455.614 555.976 441.869C571.577 428.124 581.654 409.179 584.33 388.56C584.814 385.001 585.052 381.412 585.04 377.82V308.27" stroke="black" stroke-width="4.01" stroke-miterlimit="10"/>
<path d="M457.49 363.559L418.8 364.889H418.15L393.72 365.379C388.338 365.487 382.979 366.12 377.72 367.269C334.11 376.699 306.24 420.399 315.55 463.639C316.922 470.082 319.071 476.334 321.95 482.259L394.18 643.559L360.62 644.919C355.187 645.121 350.044 647.422 346.273 651.339C342.501 655.255 340.396 660.482 340.4 665.919V668.669H482.6L473.42 643.559L407.34 463.029" stroke="black" stroke-width="4.01" stroke-miterlimit="10"/>
<path d="M340.4 300.598L227.54 463.988" stroke="black" stroke-width="4.01" stroke-miterlimit="10"/>
<path d="M377.7 367.31L325.77 321.75" stroke="black" stroke-width="4.01" stroke-miterlimit="10"/>
<path d="M487.03 463.221L486.69 462.911" stroke="black" stroke-width="4.01" stroke-miterlimit="10"/>
<path d="M360.96 232.31L327.25 163.25" stroke="black" stroke-width="4.01" stroke-miterlimit="10"/>
<path d="M770.7 463.028C770.7 463.088 770.76 463.118 770.79 463.188H742.25" stroke="black" stroke-width="4.01" stroke-miterlimit="10"/>
<path d="M441.19 463.341C441.19 463.191 441.1 463.031 441.07 462.911" stroke="black" stroke-width="4.01" stroke-miterlimit="10"/>
<path d="M533.4 126.24C543.996 125.957 554.515 128.12 564.14 132.56C586.585 143.01 605.268 160.119 617.65 181.56C631.29 205.35 642.33 231.02 654.45 255.56C669.637 286.4 684.843 317.226 700.07 348.04C707.403 362.913 714.737 377.79 722.07 392.67L737.63 424.18C740.828 429.444 745.334 433.792 750.71 436.8C756.082 439.796 762.129 441.372 768.28 441.38C774.442 441.379 780.476 443.14 785.671 446.454C790.866 449.769 795.005 454.5 797.6 460.09L798.96 463.03H761.43" stroke="black" stroke-width="4.01" stroke-miterlimit="10"/>
<path d="M418.81 364.91C414.4 336.63 415.33 308.16 417.56 279.72C421.56 228.89 437.02 177.96 478.47 145.08C479.54 144.23 480.62 143.39 481.74 142.61" stroke="black" stroke-width="4.01" stroke-miterlimit="10"/>
<path d="M521.39 193.739C520.61 223.679 546.16 254.019 546.16 254.019C546.16 254.019 546.22 254.079 546.22 254.109C559.18 272.109 572.12 290.162 585.04 308.269C588.38 312.909 591.69 317.519 595.04 322.149C608.033 340.215 621 358.289 633.94 376.369C645 391.929 655.43 408.259 667.06 423.559C670.06 427.479 673.12 431.319 676.34 435.059C680.45 439.859 684.69 445.329 689.7 449.199C694.71 453.069 700.52 456.679 705.7 460.759C710.04 464.401 713.756 468.728 716.7 473.569C719.92 479.069 720.26 485.289 723.01 490.789C727.83 500.509 739.74 498.899 743.82 489.619C749.48 476.749 737.11 448.919 737.11 448.919" stroke="black" stroke-width="4.01" stroke-miterlimit="10"/>
<path d="M900 463.188H742.25" stroke="black" stroke-width="4.01" stroke-miterlimit="10"/>
<path d="M418.6 268.75L361 232.31L360.14 231.75C351.762 226.303 342.344 222.655 332.483 221.034C322.622 219.414 312.532 219.858 302.851 222.337C293.17 224.816 284.109 229.278 276.241 235.439C268.373 241.6 261.869 249.326 257.14 258.13L157 438.91L122.64 441.2C117.331 441.56 112.356 443.922 108.721 447.809C105.086 451.696 103.063 456.818 103.06 462.14V464.42" stroke="black" stroke-width="4.01" stroke-miterlimit="10"/>
<path d="M312.93 109C317.69 109.93 319.49 109.62 322.93 110.3C323.193 110.341 323.463 110.295 323.698 110.17C323.932 110.045 324.12 109.847 324.233 109.605C324.346 109.364 324.377 109.093 324.323 108.832C324.268 108.571 324.13 108.336 323.93 108.16L312.55 97.16C309.433 94.505 307.282 90.895 306.43 86.89L306.33 86.49C306.722 85.129 307.471 83.899 308.5 82.926C309.529 81.954 310.8 81.275 312.18 80.96C314.599 80.568 317.08 80.888 319.32 81.88C323.03 83.34 328.01 84.64 332.75 86.27C339.306 88.581 344.814 93.169 348.27 99.2L348.71 99.98C362.334 123.655 377.922 146.144 395.31 167.21L432.31 212.68" stroke="black" stroke-width="4.01" stroke-miterlimit="10"/>
<path d="M318.84 167.911C316.719 167.911 314.654 167.231 312.948 165.971C311.242 164.711 309.984 162.938 309.36 160.911L299.84 131.561L291.44 103.831L280.49 68.131C280.066 66.746 279.978 65.281 280.234 63.856C280.491 62.431 281.084 61.087 281.964 59.938C282.845 58.789 283.987 57.866 285.296 57.247C286.605 56.628 288.043 56.331 289.49 56.381C291.361 56.435 293.17 57.067 294.668 58.19C296.167 59.312 297.282 60.87 297.86 62.651L312.95 109.001L328.3 154.911C328.785 156.402 328.91 157.988 328.664 159.537C328.418 161.086 327.809 162.555 326.886 163.823C325.963 165.092 324.753 166.123 323.354 166.834C321.956 167.544 320.409 167.913 318.84 167.911Z" fill="#3FBDF1"/>
<path d="M318.84 167.911C316.719 167.911 314.654 167.231 312.948 165.971C311.242 164.711 309.984 162.938 309.36 160.911L299.84 131.561L291.44 103.831L280.49 68.131C280.066 66.746 279.978 65.281 280.234 63.856C280.491 62.431 281.084 61.087 281.964 59.938C282.845 58.789 283.987 57.866 285.296 57.247C286.605 56.628 288.043 56.331 289.49 56.381C291.361 56.435 293.17 57.067 294.668 58.19C296.167 59.312 297.282 60.87 297.86 62.651L312.95 109.001L328.3 154.911C328.785 156.402 328.91 157.988 328.664 159.537C328.418 161.086 327.809 162.555 326.886 163.823C325.963 165.092 324.753 166.123 323.354 166.834C321.956 167.544 320.409 167.913 318.84 167.911Z" stroke="black" stroke-width="4.01" stroke-miterlimit="10"/>
<path d="M279.93 122.98C277.551 122.884 275.247 122.121 273.28 120.78C272.206 119.982 271.303 118.977 270.625 117.825C269.946 116.672 269.506 115.395 269.33 114.069C269.153 112.743 269.245 111.395 269.599 110.106C269.953 108.816 270.562 107.61 271.39 106.56C272.879 104.724 274.886 103.379 277.15 102.7C280.047 101.749 283.179 101.791 286.05 102.82C289.106 104.144 291.608 106.487 293.13 109.45" stroke="black" stroke-width="4.01" stroke-miterlimit="10"/>
<path d="M285.84 142.057C283.45 142.036 281.115 141.343 279.1 140.057C278.007 139.287 277.079 138.304 276.372 137.169C275.666 136.033 275.194 134.767 274.985 133.446C274.776 132.125 274.834 130.775 275.157 129.477C275.479 128.178 276.058 126.958 276.86 125.887C278.308 124.013 280.288 122.619 282.54 121.887C285.406 120.865 288.532 120.83 291.42 121.787C294.29 122.787 297.12 124.567 298.51 127.217" stroke="black" stroke-width="4.01" stroke-miterlimit="10"/>
<path d="M304 144.459C302.283 142.182 299.844 140.557 297.083 139.848C294.321 139.14 291.401 139.39 288.8 140.559C286.819 141.411 285.137 142.835 283.97 144.649C283.328 145.68 282.898 146.83 282.707 148.03C282.517 149.231 282.568 150.457 282.859 151.637C283.15 152.817 283.674 153.927 284.401 154.901C285.127 155.875 286.042 156.694 287.09 157.309L288.45 158.039C288.45 158.039 296.61 161.319 310.22 162.889" stroke="black" stroke-width="4.01" stroke-miterlimit="10"/>
<path d="M394.84 463.371C398.61 463.371 437.39 463.371 441.19 463.371C456.41 463.311 471.72 463.281 487.03 463.251C562.83 463.061 638.91 462.941 708.03 462.911" stroke="black" stroke-width="4.01" stroke-miterlimit="10"/>
<path d="M742.15 462.879C765.23 462.879 778.06 462.879 798.91 462.879C832.91 462.939 863.55 463.029 889.53 463.159" stroke="black" stroke-width="4.01" stroke-miterlimit="10"/>
<path d="M0 464.83C1.82 464.83 141.62 464.21 315.53 463.68" stroke="black" stroke-width="4.01" stroke-miterlimit="10"/>
<path d="M533.4 125.34C533.8 129.18 531.2 132.4 529.13 135.34C522.579 144.593 514.639 152.779 505.59 159.61C498.51 165.12 486.76 174.52 478.13 166.61C470.71 159.78 475.5 147.28 482.55 142.12L482.64 142.06" stroke="black" stroke-width="4.01" stroke-miterlimit="10"/>
<path d="M464.11 59.661C464.11 59.661 476.65 60.871 478.65 71.661" stroke="black" stroke-width="4.01" stroke-miterlimit="10"/>
<path d="M458.27 91.118C455.355 91.585 452.378 91.487 449.5 90.828C448.957 90.695 448.456 90.431 448.038 90.061C447.62 89.69 447.298 89.223 447.101 88.7C446.904 88.177 446.838 87.614 446.907 87.06C446.977 86.505 447.18 85.976 447.5 85.518C450.5 81.308 453.5 77.148 456.81 73.188C457.321 72.689 457.669 72.048 457.81 71.348C457.81 71.348 457.68 58.158 461.15 48.348" stroke="black" stroke-width="4.01" stroke-miterlimit="10"/>
<path d="M469.845 71.36C470.285 69.268 469.2 67.269 467.422 66.896C465.643 66.522 463.846 67.914 463.406 70.006C462.966 72.098 464.051 74.096 465.829 74.47C467.608 74.844 469.406 73.451 469.845 71.36Z" fill="black"/>
<path d="M533.4 126.239C528.79 112.869 526.67 106.039 526.67 106.039" stroke="black" stroke-width="4.01" stroke-linecap="round" stroke-linejoin="round"/>
<path d="M482.65 121.77L482.58 167.91" stroke="black" stroke-width="4.01" stroke-miterlimit="10"/>
<path d="M453.67 91.411C453.67 91.411 456.89 117.951 469.77 122.981C482.65 128.011 495.44 112.491 495.44 112.491" stroke="black" stroke-width="4.01" stroke-linecap="round" stroke-linejoin="round"/>
<path d="M456.31 103.481C457.979 104.649 459.913 105.382 461.937 105.614C463.96 105.846 466.01 105.57 467.9 104.811" stroke="black" stroke-width="4.01" stroke-linecap="round" stroke-linejoin="round"/>
<path d="M488.61 13.938C488.614 11.9 488.083 9.89699 487.07 8.12799C485.757 5.85499 483.735 4.075 481.314 3.061C478.892 2.047 476.205 1.85498 473.664 2.51398C471.123 3.17298 468.869 4.648 467.246 6.711C465.623 8.775 464.722 11.313 464.68 13.938" stroke="black" stroke-width="4.01" stroke-miterlimit="10" stroke-linecap="round"/>
<path d="M482 31.558C481.988 28.671 481.271 25.832 479.912 23.285C478.553 20.739 476.592 18.564 474.2 16.948C462.2 8.86799 444.91 21.208 448.34 35.118C449.54 39.968 453.03 43.698 457.14 46.328C464.71 51.188 475.82 51.858 480.38 42.688L480.45 42.538C480.45 42.538 481.45 50.978 490.1 51.998C491.218 52.17 492.361 52.094 493.447 51.775C494.532 51.457 495.535 50.903 496.383 50.154C497.231 49.405 497.904 48.479 498.355 47.441C498.805 46.403 499.022 45.279 498.99 44.148C505.86 52.478 506.88 64.148 502.5 73.898C503.29 72.138 507.61 72.828 508.78 73.348C514 75.658 516.34 82.228 514.7 87.528C513.17 92.468 508.93 96.398 504.44 99.148C504.06 99.37 503.739 99.681 503.505 100.055C503.271 100.428 503.131 100.852 503.097 101.291C503.062 101.73 503.135 102.171 503.308 102.577C503.481 102.982 503.749 103.339 504.09 103.618C507.351 106.096 511.24 107.614 515.317 108.002C519.395 108.39 523.5 107.632 527.17 105.813C530.839 103.994 533.929 101.187 536.09 97.707C538.25 94.227 539.397 90.214 539.4 86.118V85.838C543.292 85.351 546.909 83.574 549.672 80.791C552.436 78.008 554.188 74.379 554.649 70.484C555.109 66.589 554.252 62.652 552.213 59.301C550.174 55.95 547.071 53.379 543.4 51.998C544.708 50.064 545.405 47.782 545.4 45.448C545.4 42.265 544.136 39.213 541.885 36.963C539.635 34.712 536.583 33.448 533.4 33.448" stroke="black" stroke-width="4.01" stroke-linecap="round" stroke-linejoin="round"/>
<path d="M488.61 7.76999C491.3 4.05999 494.12 2 499.04 2C502.1 2.003 505.083 2.961 507.571 4.741C510.06 6.522 511.93 9.03499 512.92 11.93C512.79 11.53 516.92 10.05 517.33 9.92999C518.954 9.46099 520.639 9.232 522.33 9.25C526.864 9.376 531.176 11.245 534.367 14.47C537.557 17.694 539.382 22.025 539.46 26.56C539.458 29.225 538.831 31.852 537.63 34.23" stroke="black" stroke-width="4.01" stroke-linecap="square" stroke-linejoin="round"/>
<path d="M539.4 85.818V86.098C539.4 91.933 537.082 97.528 532.956 101.654C528.83 105.78 523.235 108.098 517.4 108.098C513.661 108.115 509.982 107.153 506.73 105.308C505.794 104.822 504.904 104.253 504.07 103.608C503.728 103.329 503.459 102.971 503.286 102.566C503.112 102.16 503.039 101.719 503.072 101.279C503.105 100.84 503.244 100.414 503.477 100.04C503.71 99.665 504.03 99.352 504.41 99.128C508.92 96.408 513.16 92.448 514.68 87.528C515.144 86.018 515.3 84.43 515.14 82.858C515.007 80.85 514.349 78.913 513.231 77.24C512.113 75.567 510.574 74.218 508.77 73.328C508.203 73.113 507.612 72.968 507.01 72.898C505.31 72.618 503.01 72.648 502.49 73.898C505.172 67.938 505.815 61.26 504.32 54.898C503.389 50.95 501.569 47.267 499 44.128C499.037 45.26 498.824 46.385 498.376 47.425C497.928 48.465 497.256 49.393 496.407 50.143C495.559 50.893 494.556 51.446 493.469 51.763C492.382 52.08 491.238 52.154 490.12 51.978C481.43 50.978 480.47 42.518 480.47 42.518C480.47 42.518 480.41 42.608 480.41 42.668C475.83 51.828 464.73 51.178 457.15 46.318C454.465 44.649 452.167 42.426 450.41 39.798C448.95 29.898 457.74 21.178 467.08 20.588C467.79 14.438 472.83 8.18797 478.95 8.18797C481.077 8.18197 483.167 8.74698 485.001 9.82298C486.836 10.899 488.348 12.448 489.38 14.308C489.541 14.599 489.685 14.9 489.81 15.208C492.59 11.808 496.99 8.20796 501.35 8.20796C504.405 8.21196 507.383 9.16797 509.87 10.942C512.358 12.716 514.231 15.221 515.23 18.108C515.23 17.668 519.23 16.248 519.62 16.108C521.244 15.636 522.929 15.407 524.62 15.428C527.568 15.505 530.449 16.321 533 17.801C535.551 19.281 537.689 21.377 539.22 23.898C539.374 24.776 539.447 25.666 539.44 26.558C539.442 29.223 538.815 31.851 537.61 34.228C538.982 34.738 540.245 35.505 541.33 36.488C543.662 38.526 545.099 41.399 545.33 44.488C545.33 44.798 545.33 45.108 545.33 45.418C545.335 47.752 544.638 50.034 543.33 51.968C544.768 52.512 546.13 53.242 547.38 54.138C551.105 56.823 553.621 60.869 554.38 65.398C554.548 66.389 554.631 67.393 554.63 68.398C554.629 72.653 553.086 76.763 550.285 79.967C547.484 83.17 543.617 85.249 539.4 85.818Z" fill="#3FBDF1"/>
<path d="M539.4 85.818V86.098C539.4 91.933 537.082 97.528 532.956 101.654C528.83 105.78 523.235 108.098 517.4 108.098C513.661 108.115 509.982 107.153 506.73 105.308C511.24 102.588 515.48 98.628 517 93.718C517.542 91.886 517.657 89.954 517.334 88.071C517.012 86.188 516.261 84.405 515.14 82.858C515.007 80.85 514.349 78.913 513.231 77.24C512.113 75.567 510.574 74.218 508.77 73.328C508.203 73.113 507.612 72.968 507.01 72.898C508.095 66.765 507.151 60.446 504.32 54.898C503.389 50.95 501.569 47.267 499 44.128C499.037 45.26 498.824 46.385 498.376 47.425C497.928 48.465 497.256 49.393 496.407 50.143C495.559 50.893 494.556 51.446 493.469 51.763C492.382 52.08 491.238 52.154 490.12 51.978C481.43 50.978 480.47 42.518 480.47 42.518C480.47 42.518 480.41 42.608 480.41 42.668C475.83 51.828 464.73 51.178 457.15 46.318C454.465 44.649 452.167 42.426 450.41 39.798C448.95 29.898 457.74 21.178 467.08 20.588C467.79 14.438 472.83 8.18797 478.95 8.18797C481.077 8.18197 483.167 8.74698 485.001 9.82298C486.836 10.899 488.348 12.448 489.38 14.308C489.541 14.599 489.685 14.9 489.81 15.208C492.59 11.808 496.99 8.20796 501.35 8.20796C504.405 8.21196 507.383 9.16797 509.87 10.942C512.358 12.716 514.231 15.221 515.23 18.108C515.23 17.668 519.23 16.248 519.62 16.108C521.244 15.636 522.929 15.407 524.62 15.428C527.568 15.505 530.449 16.321 533 17.801C535.551 19.281 537.689 21.377 539.22 23.898C539.374 24.776 539.447 25.666 539.44 26.558C539.442 29.223 538.815 31.851 537.61 34.228C538.982 34.738 540.245 35.505 541.33 36.488C541.035 37.853 540.564 39.174 539.93 40.418C542.08 41.233 543.958 42.637 545.35 44.468C545.35 44.778 545.35 45.088 545.35 45.398C545.355 47.732 544.658 50.014 543.35 51.948C544.788 52.492 546.15 53.222 547.4 54.118C547.063 55.543 546.477 56.897 545.67 58.118C549.329 59.472 552.423 62.024 554.45 65.358C554.618 66.349 554.701 67.353 554.7 68.358C554.707 72.63 553.158 76.759 550.342 79.973C547.526 83.186 543.636 85.264 539.4 85.818Z" fill="#3FBDF1"/>
<path d="M464.11 59.661C464.11 59.661 476.65 60.871 478.65 71.661" stroke="black" stroke-width="4.01" stroke-miterlimit="10"/>
<path d="M458.27 91.118C455.355 91.585 452.378 91.487 449.5 90.828C448.957 90.695 448.456 90.431 448.038 90.061C447.62 89.69 447.298 89.223 447.101 88.7C446.904 88.177 446.838 87.614 446.907 87.06C446.977 86.505 447.18 85.976 447.5 85.518C450.5 81.308 453.5 77.148 456.81 73.188C457.321 72.689 457.669 72.048 457.81 71.348C457.81 71.348 457.68 58.158 461.15 48.348" stroke="black" stroke-width="4.01" stroke-miterlimit="10"/>
<path d="M469.845 71.36C470.285 69.268 469.2 67.269 467.422 66.896C465.643 66.522 463.846 67.914 463.406 70.006C462.966 72.098 464.051 74.096 465.829 74.47C467.608 74.844 469.406 73.451 469.845 71.36Z" fill="black"/>
<path d="M533.4 126.239C528.79 112.869 526.67 106.039 526.67 106.039" stroke="black" stroke-width="4.01" stroke-linecap="round" stroke-linejoin="round"/>
<path d="M482.65 121.77L482.58 167.91" stroke="black" stroke-width="4.01" stroke-miterlimit="10"/>
<path d="M453.67 91.411C453.67 91.411 456.89 117.951 469.77 122.981C482.65 128.011 495.44 112.491 495.44 112.491" stroke="black" stroke-width="4.01" stroke-linecap="round" stroke-linejoin="round"/>
<path d="M456.31 103.481C457.979 104.649 459.913 105.382 461.937 105.614C463.96 105.846 466.01 105.57 467.9 104.811" stroke="black" stroke-width="4.01" stroke-linecap="round" stroke-linejoin="round"/>
<path d="M488.61 13.938C488.614 11.9 488.083 9.89699 487.07 8.12799C485.757 5.85499 483.735 4.075 481.314 3.061C478.892 2.047 476.205 1.85498 473.664 2.51398C471.123 3.17298 468.869 4.648 467.246 6.711C465.623 8.775 464.722 11.313 464.68 13.938" stroke="black" stroke-width="4.01" stroke-miterlimit="10" stroke-linecap="round"/>
<path d="M482 31.558C481.988 28.671 481.271 25.832 479.912 23.285C478.553 20.739 476.592 18.564 474.2 16.948C462.2 8.86799 444.91 21.208 448.34 35.118C449.54 39.968 453.03 43.698 457.14 46.328C464.71 51.188 475.82 51.858 480.38 42.688L480.45 42.538C480.45 42.538 481.45 50.978 490.1 51.998C491.218 52.17 492.361 52.094 493.447 51.775C494.532 51.457 495.535 50.903 496.383 50.154C497.231 49.405 497.904 48.479 498.355 47.441C498.805 46.403 499.022 45.279 498.99 44.148C505.86 52.478 506.88 64.148 502.5 73.898C503.29 72.138 507.61 72.828 508.78 73.348C514 75.658 516.34 82.228 514.7 87.528C513.17 92.468 508.93 96.398 504.44 99.148C504.06 99.37 503.739 99.681 503.505 100.055C503.271 100.428 503.131 100.852 503.097 101.291C503.062 101.73 503.135 102.171 503.308 102.577C503.481 102.982 503.749 103.339 504.09 103.618C507.351 106.096 511.24 107.614 515.317 108.002C519.395 108.39 523.5 107.632 527.17 105.813C530.839 103.994 533.929 101.187 536.09 97.707C538.25 94.227 539.397 90.214 539.4 86.118V85.838C543.292 85.351 546.909 83.574 549.672 80.791C552.436 78.008 554.188 74.379 554.649 70.484C555.109 66.589 554.252 62.652 552.213 59.301C550.174 55.95 547.071 53.379 543.4 51.998C544.708 50.064 545.405 47.782 545.4 45.448C545.4 42.265 544.136 39.213 541.885 36.963C539.635 34.712 536.583 33.448 533.4 33.448" stroke="black" stroke-width="4.01" stroke-linecap="round" stroke-linejoin="round"/>
<path d="M488.61 7.76999C491.3 4.05999 494.12 2 499.04 2C502.1 2.003 505.083 2.961 507.571 4.741C510.06 6.522 511.93 9.03499 512.92 11.93C512.79 11.53 516.92 10.05 517.33 9.92999C518.954 9.46099 520.639 9.232 522.33 9.25C526.864 9.376 531.176 11.245 534.367 14.47C537.557 17.694 539.382 22.025 539.46 26.56C539.458 29.225 538.831 31.852 537.63 34.23" stroke="black" stroke-width="4.01" stroke-linecap="square" stroke-linejoin="round"/>
</svg>
