<svg viewBox="0 0 24 24" fill="none" xmlns="http://www.w3.org/2000/svg">
<path d="M12.293 5.29303C12.4805 5.10556 12.7348 5.00024 13 5.00024C13.2652 5.00024 13.5195 5.10556 13.707 5.29303L19.707 11.293C19.8945 11.4806 19.9998 11.7349 19.9998 12C19.9998 12.2652 19.8945 12.5195 19.707 12.707L13.707 18.707C13.5184 18.8892 13.2658 18.99 13.0036 18.9877C12.7414 18.9854 12.4906 18.8803 12.3052 18.6948C12.1198 18.5094 12.0146 18.2586 12.0123 17.9964C12.01 17.7342 12.1108 17.4816 12.293 17.293L16.586 13H5C4.73478 13 4.48043 12.8947 4.29289 12.7071C4.10536 12.5196 4 12.2652 4 12C4 11.7348 4.10536 11.4805 4.29289 11.2929C4.48043 11.1054 4.73478 11 5 11H16.586L12.293 6.70703C12.1055 6.5195 12.0002 6.26519 12.0002 6.00003C12.0002 5.73487 12.1055 5.48056 12.293 5.29303Z" fill="currentColor"/>
</svg>
