<svg viewBox="0 0 16 14" fill="none" xmlns="http://www.w3.org/2000/svg">
<path d="M15.5 11H5V10.5C5 10.225 4.775 10 4.5 10H3.5C3.225 10 3 10.225 3 10.5V11H0.5C0.225 11 0 11.225 0 11.5V12.5C0 12.775 0.225 13 0.5 13H3V13.5C3 13.775 3.225 14 3.5 14H4.5C4.775 14 5 13.775 5 13.5V13H15.5C15.775 13 16 12.775 16 12.5V11.5C16 11.225 15.775 11 15.5 11ZM15.5 6H13V5.5C13 5.225 12.775 5 12.5 5H11.5C11.225 5 11 5.225 11 5.5V6H0.5C0.225 6 0 6.225 0 6.5V7.5C0 7.775 0.225 8 0.5 8H11V8.5C11 8.775 11.225 9 11.5 9H12.5C12.775 9 13 8.775 13 8.5V8H15.5C15.775 8 16 7.775 16 7.5V6.5C16 6.225 15.775 6 15.5 6ZM15.5 1H9V0.5C9 0.225 8.775 0 8.5 0H7.5C7.225 0 7 0.225 7 0.5V1H0.5C0.225 1 0 1.225 0 1.5V2.5C0 2.775 0.225 3 0.5 3H7V3.5C7 3.775 7.225 4 7.5 4H8.5C8.775 4 9 3.775 9 3.5V3H15.5C15.775 3 16 2.775 16 2.5V1.5C16 1.225 15.775 1 15.5 1Z" fill="black"/>
</svg>
